<svg width="256" height="39" viewBox="0 0 256 39" fill="none" xmlns="http://www.w3.org/2000/svg">
<path d="M37.6543 15.6651C37.9785 18.3413 35.0582 31.2684 26.2548 35.2982C32.7845 31.6539 41.5753 14.5633 32.7845 6.35696C31.5739 5.57959 30.2205 5.05425 28.8043 4.81201C41.6114 9.28801 30.8703 40.2663 9.70215 36.1207C12.5271 37.6849 15.7006 38.5035 18.9258 38.4999C31.6891 38.4999 39.809 26.6339 37.6543 15.6651Z" fill="url(#paint0_linear_282_7062)"/>
<path d="M8.19023 32.3408C7.93205 33.4617 6.99771 33.3911 4.63785 30.3243C-5.74773 16.8642 20.7018 -1.21421 32.8794 6.4123C25.7451 -1.00233 13.3285 -1.78924 5.45239 6.02964C2.40847 9.04665 0.485227 13.01 0 17.2658C1.00468 14.2677 8.12467 1.19763 22.8306 3.39835C14.1542 2.92765 7.1687 7.93821 3.51923 12.7585C-1.80293 19.7675 0.70688 28.926 6.04326 33.4268C7.60412 34.3196 8.05889 33.3791 8.19023 32.3408Z" fill="url(#paint1_linear_282_7062)"/>
<path d="M7.23324 25.5814C7.46291 26.8431 8.45105 30.7998 8.08418 32.3819C7.95227 33.4197 7.49582 34.3596 5.92908 33.4674C9.63514 36.4887 9.49941 29.4326 14.2117 23.0388C14.3692 22.8254 14.0008 17.5915 14.1691 17.3795C14.2655 17.2586 14.8952 22.159 14.9952 22.0391C15.8498 21.0103 16.8079 20.071 17.8546 19.2359C17.9666 19.1466 18.4965 15.5115 18.6118 15.4238C18.71 15.3494 18.393 18.8213 18.4942 18.7479C19.7183 17.853 22.2389 16.5486 23.87 15.8715C23.0541 16.3457 20.6952 17.7717 19.6179 18.6928L23.5376 18.433C23.5376 18.433 19.0042 19.2244 18.881 19.3396C18.3807 19.8069 16.6303 21.6973 14.8942 24.468C14.7867 24.6398 20.4899 23.7678 20.3826 23.9459C20.2684 24.1351 14.3447 25.3759 14.2318 25.5733C12.9898 27.6996 12.0508 29.9872 11.442 32.3705C29.5944 36.8969 29.7033 12.8096 29.7801 6.96826C24.9823 13.9206 4.59485 11.3985 7.23324 25.5814Z" fill="#26E61F"/>
<path d="M67.376 31.384C65.648 31.384 64.0373 31.1067 62.544 30.552C61.072 29.976 59.792 29.1653 58.704 28.12C57.616 27.0747 56.7627 25.848 56.144 24.44C55.5467 23.032 55.248 21.4853 55.248 19.8C55.248 18.1147 55.5467 16.568 56.144 15.16C56.7627 13.752 57.616 12.5253 58.704 11.48C59.8133 10.4347 61.104 9.63467 62.576 9.08C64.048 8.504 65.6587 8.216 67.408 8.216C69.3493 8.216 71.0987 8.55733 72.656 9.24C74.2347 9.90133 75.5573 10.8827 76.624 12.184L73.296 15.256C72.528 14.3813 71.6747 13.7307 70.736 13.304C69.7973 12.856 68.7733 12.632 67.664 12.632C66.6187 12.632 65.6587 12.8027 64.784 13.144C63.9093 13.4853 63.152 13.976 62.512 14.616C61.872 15.256 61.3707 16.0133 61.008 16.888C60.6667 17.7627 60.496 18.7333 60.496 19.8C60.496 20.8667 60.6667 21.8373 61.008 22.712C61.3707 23.5867 61.872 24.344 62.512 24.984C63.152 25.624 63.9093 26.1147 64.784 26.456C65.6587 26.7973 66.6187 26.968 67.664 26.968C68.7733 26.968 69.7973 26.7547 70.736 26.328C71.6747 25.88 72.528 25.208 73.296 24.312L76.624 27.384C75.5573 28.6853 74.2347 29.6773 72.656 30.36C71.0987 31.0427 69.3387 31.384 67.376 31.384ZM78.1248 31V8.6H83.3088V26.776H94.5408V31H78.1248ZM100.205 17.624H110.989V21.656H100.205V17.624ZM100.589 26.84H112.781V31H95.4373V8.6H112.365V12.76H100.589V26.84ZM114.906 31V8.6H119.194L128.73 24.408H126.458L135.834 8.6H140.09L140.154 31H135.29L135.258 16.056H136.154L128.666 28.632H126.33L118.682 16.056H119.77V31H114.906ZM148.237 17.624H159.021V21.656H148.237V17.624ZM148.621 26.84H160.812V31H143.469V8.6H160.397V12.76H148.621V26.84ZM162.937 31V8.6H167.225L180.441 24.728H178.361V8.6H183.481V31H179.225L165.977 14.872H168.057V31H162.937ZM191.421 31V12.824H184.253V8.6H203.773V12.824H196.605V31H191.421ZM204.562 31V8.6H209.746V31H204.562ZM213.062 31V8.6H217.35L230.566 24.728H228.486V8.6H233.606V31H229.35L216.102 14.872H218.182V31H213.062ZM241.674 17.624H252.458V21.656H241.674V17.624ZM242.058 26.84H254.25V31H236.906V8.6H253.834V12.76H242.058V26.84Z" fill="url(#paint2_linear_282_7062)"/>
<defs>
<linearGradient id="paint0_linear_282_7062" x1="23.8511" y1="4.81201" x2="23.8511" y2="38.5" gradientUnits="userSpaceOnUse">
<stop stop-color="#1E9AD3"/>
<stop offset="1" stop-color="#56CA00"/>
</linearGradient>
<linearGradient id="paint1_linear_282_7062" x1="16.4397" y1="0.5" x2="16.4397" y2="33.7837" gradientUnits="userSpaceOnUse">
<stop stop-color="#1E9AD3"/>
<stop offset="1" stop-color="#0A6618"/>
</linearGradient>
<linearGradient id="paint2_linear_282_7062" x1="54" y1="19.5" x2="256" y2="19.5" gradientUnits="userSpaceOnUse">
<stop stop-color="#188892"/>
<stop offset="1" stop-color="#26E61F"/>
</linearGradient>
</defs>
</svg>
